<?xml version="1.0" standalone="no"?>
<!DOCTYPE svg PUBLIC "-//W3C//DTD SVG 20010904//EN"
 "http://www.w3.org/TR/2001/REC-SVG-20010904/DTD/svg10.dtd">
<svg version="1.0" xmlns="http://www.w3.org/2000/svg"
 width="260.000000pt" height="260.000000pt" viewBox="0 0 260.000000 260.000000"
 preserveAspectRatio="xMidYMid meet">
<metadata>
Created by potrace 1.11, written by Peter Selinger 2001-2013
</metadata>
<g transform="translate(0.000000,260.000000) scale(0.100000,-0.100000)"
fill="#000000" stroke="none">
<path d="M1640 1866 c-173 -50 -301 -190 -350 -382 -39 -153 -21 -374 41 -496
89 -178 234 -268 430 -268 161 0 254 33 332 120 61 68 77 119 77 251 l0 107
28 6 c15 3 44 8 65 12 27 5 37 11 37 25 0 18 -11 19 -205 19 -195 0 -205 -1
-205 -19 0 -15 10 -21 43 -26 86 -13 80 -1 75 -149 -3 -125 -5 -134 -34 -186
-18 -32 -49 -68 -73 -85 -40 -28 -49 -30 -134 -30 -75 0 -99 4 -132 22 -86 46
-146 134 -171 252 -17 81 -19 420 -3 507 22 118 89 217 181 266 36 19 58 23
138 23 88 0 101 -3 162 -33 l67 -33 46 -119 c37 -95 51 -120 66 -120 18 0 19
9 19 175 0 171 0 175 -21 175 -11 0 -38 -15 -60 -33 l-39 -34 -62 31 c-56 28
-72 31 -167 33 -64 1 -124 -3 -151 -11z"/>
<path d="M310 1835 c0 -18 8 -21 73 -30 l47 -6 0 -499 0 -499 -47 -6 c-65 -9
-73 -12 -73 -30 0 -13 50 -15 420 -15 l420 0 0 171 c0 168 0 170 -21 167 -17
-2 -29 -24 -60 -108 -21 -58 -46 -124 -55 -147 l-16 -43 -204 0 -204 0 0 504
0 504 48 6 c68 10 82 16 82 32 0 12 -34 14 -205 14 -177 0 -205 -2 -205 -15z"/>
</g>
</svg>
