<?xml version="1.0" standalone="no"?>
<!DOCTYPE svg PUBLIC "-//W3C//DTD SVG 20010904//EN"
 "http://www.w3.org/TR/2001/REC-SVG-20010904/DTD/svg10.dtd">
<svg version="1.0" xmlns="http://www.w3.org/2000/svg"
 width="260.000000pt" height="260.000000pt" viewBox="0 0 260.000000 260.000000"
 preserveAspectRatio="xMidYMid meet">
<metadata>
Created by potrace 1.11, written by Peter Selinger 2001-2013
</metadata>
<g transform="translate(0.000000,260.000000) scale(0.100000,-0.100000)"
fill="#000000" stroke="none">
<path d="M370 1826 c0 -9 16 -17 43 -21 86 -13 77 43 77 -505 l0 -488 -57 -8
c-31 -5 -58 -15 -61 -21 -3 -10 83 -13 407 -13 l411 0 0 161 c0 157 0 160 -21
157 -17 -2 -31 -29 -74 -143 l-52 -140 -201 -3 -202 -2 0 494 c0 555 -9 498
78 511 26 4 42 12 42 21 0 12 -34 14 -195 14 -161 0 -195 -2 -195 -14z"/>
<path d="M1360 1826 c0 -9 16 -17 43 -21 86 -13 77 43 77 -505 l0 -488 -60 -7
c-43 -5 -60 -11 -60 -22 0 -13 42 -14 313 -11 300 4 314 5 371 27 121 48 181
136 180 261 0 85 -30 148 -92 195 -42 33 -151 75 -193 75 -10 0 -19 5 -19 10
0 6 8 10 18 10 29 0 135 56 164 86 71 76 76 216 11 303 -32 41 -107 77 -193
90 -36 6 -176 11 -312 11 -207 0 -248 -2 -248 -14z m510 -37 c47 -16 97 -64
111 -108 16 -48 13 -168 -5 -211 -18 -45 -61 -89 -103 -106 -20 -9 -71 -14
-138 -14 l-105 0 0 232 0 231 103 -6 c56 -4 118 -12 137 -18z m85 -506 c54
-29 80 -59 99 -116 33 -100 12 -237 -47 -297 -56 -58 -79 -64 -234 -68 l-143
-4 0 257 0 257 143 -4 c121 -3 148 -7 182 -25z"/>
</g>
</svg>
